@startuml

class AAUOC {
    newLocation(l:Location): void
    newEvent(e:Event): void
    newPerson(p:Person): void
    informEvent(e:Event): void
    register(m:Member, e:Event): void

}
class Location {
    description: String
    address: String

}
class Event{
    date: Date
    description: String
    assign(l:Location): void

}
class Conference {
    max_attendees: Integer

}
class BroadMeeting{
}

class Person {
    name: String

}
class Member{
    e-mail: String

}

class BroadMember {

}

hide members
AAUOC o-- "0..*" Event
AAUOC o--  "0..*" Location
AAUOC o-- "0..*" Person
Location "1" -- "0..*" Event : isLocated In
Event <|-- Conference
Event <|-- BroadMeeting
Person <|-- Member
Member <|-- BroadMember
Event "0..*"-- "0..*" Member : attendsTo
Person "0..*" -- "0..*" Conference : attendsTo
BroadMeeting "0..*" -- "0..*" BroadMember : attendsTo



@enduml